# Created with Anim8or 1.00 beta 3
# Object "bentForceps":

mtllib bentForceps.mtl

# Shape "bentForcepsR":
g bentForcepsR
# No. points 64:
v -0.02000 0.19748 -4.78901
v -0.02000 0.80250 -4.78901
v -90.02 0.79750 -4.78901
v -90.02 1.20251 -4.78901
v -90.02 0.79750 5.01299
v -90.02 1.20251 5.01299
v -0.02000 0.19748 5.01299
v -0.02000 0.80250 5.01299
v -90.02 1.40001 -4.60861
v -90.02 1.40001 4.83259
v -90.02 0.60001 -4.60861
v -90.02 0.60001 4.83259
v -0.02000 -0.00001 -4.60861
v -0.02000 -0.00001 4.83259
v -0.02000 0.999995 -4.60861
v -0.02000 0.999995 4.83259
v -91.643 0.60001 -0.61557
v -91.643 0.79750 -1.00371
v -91.643 1.20251 -1.00371
v -91.643 1.40001 -0.61557
v -91.643 1.40001 0.83955
v -91.643 1.20251 1.22769
v -91.643 0.79750 1.22769
v -91.643 0.60001 0.83955
v -109.73 0.60001 -0.61557
v -109.73 0.79750 -1.00371
v -109.73 1.20251 -1.00371
v -109.73 1.40001 -0.61557
v -109.73 1.40001 0.83955
v -109.73 1.20251 1.22769
v -109.73 0.79750 1.22769
v -109.73 0.60001 0.83955
v -112.5 0.00009 0.78092
v -112.78 0.19758 0.50647
v -112.78 1.20261 0.50647
v -112.5 1.40011 0.78092
v -111.47 1.40011 1.80989
v -111.2 1.20261 2.08429
v -111.2 0.19758 2.08429
v -111.47 0.00009 1.80989
v -123.32 0.00010 12.087
v -123.47 0.19759 11.942
v -123.47 0.50261 11.942
v -123.32 0.70010 12.087
v -122.78 0.70010 12.629
v -122.63 0.50261 12.774
v -122.63 0.19759 12.774
v -122.78 0.00010 12.629
v -123.38 0.09985 12.298
v -123.48 0.24106 12.194
v -123.48 0.45914 12.194
v -123.38 0.60035 12.298
v -122.99 0.60035 12.686
v -122.89 0.45914 12.789
v -122.89 0.24106 12.789
v -122.99 0.09985 12.686
v -123.35 0.21622 12.449
v -123.4 0.29176 12.393
v -123.4 0.40844 12.393
v -123.35 0.48398 12.449
v -123.14 0.48398 12.656
v -123.08 0.40844 12.712
v -123.08 0.29176 12.712
v -123.14 0.21622 12.656

# No. normals 166:
vn 0 0 -1
vn 0 0 1
vn 1 0 0
vn 0.00444 0.99999 0
vn -0.00667 -0.999978 0
vn -0.00450 -0.67443 -0.73832
vn 0.00300 0.67444 -0.73833
vn 0.00300 0.67444 0.73833
vn -0.00450 -0.67443 0.73832
vn 0 -1 0
vn -0.86476 -0.33869 -0.37078
vn -0.91908 0 -0.39407
vn -0.87603 0.32524 -0.35607
vn 0 1 0
vn -0.86477 0.33868 0.37078
vn -0.91908 0 0.39407
vn -0.87603 -0.32526 0.35607
vn 0 -1 0
vn 0 -0.89126 -0.45349
vn 0 0 -1
vn 0 0.89125 -0.45350
vn 0 1 0
vn 0 0.89125 0.45350
vn 0 0 1
vn 0 -0.89126 0.45349
vn 0 -1 0
vn -0.50224 -0.72617 -0.46950
vn -0.73052 0 -0.68289
vn -0.35265 0.89217 -0.28225
vn -0.03166 0.999001 0.03154
vn 0.28315 0.88856 0.36094
vn 0.68306 0 0.73036
vn 0.31555 -0.88973 0.32987
vn -0.32529 -0.88729 0.32697
vn -0.81744 -0.57220 0.06626
vn -0.999213 0 -0.03966
vn -0.81118 0.58306 0.04498
vn -0.33066 0.88438 0.32944
vn -0.04727 0.56658 0.82265
vn 0.05760 0 0.99834
vn -0.04618 -0.56712 0.82234
vn -0.56345 -0.59647 0.57162
vn -0.86906 -0.26595 0.41714
vn -0.92783 0 0.37300
vn -0.87348 0.28604 0.39397
vn -0.57064 0.58769 0.57358
vn -0.42750 0.31526 0.84726
vn -0.37560 0 0.92678
vn -0.41953 -0.32197 0.84872
vn -0.68229 0 0.73108
vn 0.21116 -0.95432 -0.21137
vn 0.53182 -0.75478 0.38404
vn 0.50348 0 0.86401
vn 0.22883 0.88280 0.41024
vn 0.00002 1 -0.00002
vn -0.20884 0.88229 -0.42185
vn -0.44373 0 -0.89616
vn -0.08174 -0.84665 -0.52584
vn -0.00241 -0.36171 -0.93229
vn 1 0 0
vn 0.00161 0.36171 -0.93229
vn 1 0 0
vn -0.00241 -0.36171 -0.93229
vn -0.90540 -0.17191 -0.38820
vn 0.00161 0.36171 -0.93229
vn -0.91005 0.16488 -0.38029
vn -0.00241 -0.36171 0.93229
vn -0.91005 -0.16489 0.38029
vn 0.00161 0.36171 0.93229
vn -0.90540 0.17190 0.38820
vn -0.00241 -0.36171 0.93229
vn 1 0 0
vn 0.00161 0.36171 0.93229
vn 1 0 0
vn 0.00222 0.999998 0
vn -0.87603 0.32524 -0.35607
vn 0.00300 0.67444 -0.73833
vn 0.00222 0.999998 0
vn -0.86477 0.33868 0.37078
vn 0.00300 0.67444 0.73833
vn -0.00333 -0.999994 0
vn -0.86476 -0.33869 -0.37078
vn -0.00450 -0.67443 -0.73832
vn -0.00333 -0.999994 0
vn -0.87603 -0.32526 0.35607
vn -0.00450 -0.67443 0.73832
vn 1 0 0
vn -0.00450 -0.67443 -0.73832
vn -0.00667 -0.999978 0
vn 1 0 0
vn -0.00450 -0.67443 0.73832
vn -0.00667 -0.999978 0
vn 1 0 0
vn 0.00300 0.67444 -0.73833
vn 0.00444 0.99999 0
vn 1 0 0
vn 0.00300 0.67444 0.73833
vn 0.00444 0.99999 0
vn 0 -0.98792 -0.15495
vn -0.86476 -0.33869 -0.37078
vn -0.90540 -0.17191 -0.38820
vn 0 0 -1
vn 0 -0.89126 -0.45349
vn -0.91005 0.16488 -0.38029
vn 0 0.89125 -0.45350
vn 0 0 -1
vn -0.87603 0.32524 -0.35607
vn 0 0.98792 -0.15496
vn 0 0.98792 0.15496
vn -0.86477 0.33868 0.37078
vn -0.90540 0.17190 0.38820
vn 0 0 1
vn 0 0.89125 0.45350
vn -0.91005 -0.16489 0.38029
vn 0 -0.89126 0.45349
vn 0 0 1
vn 0 -0.98792 0.15495
vn -0.87603 -0.32526 0.35607
vn 0.03334 -0.95121 -0.30675
vn -0.04094 -0.87047 -0.49052
vn -0.22786 0 -0.97369
vn -0.22786 0 -0.97369
vn -0.10501 0.89177 -0.44014
vn -0.05383 0.97272 -0.22565
vn 0.05901 0.97310 0.22270
vn 0.11520 0.89311 0.43483
vn 0.26076 0 0.96540
vn 0.26076 0 0.96540
vn 0.27671 -0.85646 0.43578
vn 0.19923 -0.96546 0.16791
vn -0.09951 -0.94146 -0.32210
vn -0.29936 -0.80625 -0.51023
vn -0.59673 0 -0.80244
vn -0.59673 0 -0.80244
vn -0.28217 0.89173 -0.35383
vn -0.15292 0.97290 -0.17341
vn 0.12365 0.97057 0.20663
vn 0.25616 0.88628 0.38585
vn 0.59702 0 0.80223
vn 0.59702 0 0.80223
vn 0.42733 -0.82932 0.36002
vn 0.27968 -0.95087 0.13278
vn -0.45871 -0.88833 -0.02127
vn -0.87119 -0.37093 -0.32163
vn -0.85437 0.43559 -0.28340
vn -0.41346 0.90991 0.03352
vn -0.03435 0.90704 0.41964
vn 0.28731 0.42812 0.85683
vn 0.29859 -0.43069 0.85168
vn -0.01529 -0.91442 0.40447
vn -0.68992 -0.62204 0.37024
vn -0.95135 -0.22066 0.21503
vn -0.95189 0.22906 0.20355
vn -0.69189 0.62639 0.35905
vn -0.36706 0.62789 0.68631
vn -0.20942 0.23295 0.94967
vn -0.20698 -0.23481 0.94975
vn -0.36112 -0.63264 0.68510
vn -0.73970 -0.30165 0.60155
vn -0.84880 -0.09105 0.52082
vn -0.85216 0.09814 0.51400
vn -0.74392 0.30567 0.59426
vn -0.58435 0.31399 0.74830
vn -0.50706 0.10762 0.85516
vn -0.50469 -0.10999 0.85626
vn -0.57994 -0.31985 0.74924

# No. texture coordinates 0:

# No. faces 58:

usemtl ___default___

f 4//65 2//61 1//59 3//63
f 7//71 8//73 6//69 5//67
f 2//62 15//93 16//96 8//74 7//72 14//90 13//87 1//60
f 10//78 16//98 15//95 9//75
f 13//89 14//92 12//84 11//81
f 1//59 13//88 11//83 3//63
f 9//77 15//94 2//61 4//65
f 8//73 16//97 10//80 6//69
f 12//86 14//91 7//71 5//67
f 24//117 17//99 11//81 12//84
f 17//100 18//101 3//64 11//82
f 18//101 19//104 4//66 3//64
f 19//104 20//107 9//76 4//66
f 20//108 21//109 10//78 9//75
f 21//110 22//111 6//70 10//79
f 22//111 23//114 5//68 6//70
f 23//114 24//118 12//85 5//68
f 32//130 25//119 17//99 24//117
f 25//119 26//120 18//103 17//99
f 26//121 27//122 19//106 18//102
f 27//123 28//124 20//108 19//105
f 28//124 29//125 21//109 20//108
f 29//125 30//126 22//113 21//109
f 30//127 31//128 23//116 22//112
f 31//129 32//130 24//117 23//115
f 48//150 41//143 33//131 40//142
f 41//143 42//144 34//132 33//131
f 42//144 43//145 35//134 34//133
f 43//145 44//146 36//136 35//135
f 44//146 45//147 37//137 36//136
f 45//147 46//148 38//138 37//137
f 46//148 47//149 39//140 38//139
f 47//149 48//150 40//142 39//141
f 56//158 49//151 41//143 48//150
f 49//151 50//152 42//144 41//143
f 50//152 51//153 43//145 42//144
f 51//153 52//154 44//146 43//145
f 52//154 53//155 45//147 44//146
f 53//155 54//156 46//148 45//147
f 54//156 55//157 47//149 46//148
f 55//157 56//158 48//150 47//149
f 64//166 57//159 49//151 56//158
f 57//159 58//160 50//152 49//151
f 58//160 59//161 51//153 50//152
f 59//161 60//162 52//154 51//153
f 60//162 61//163 53//155 52//154
f 61//163 62//164 54//156 53//155
f 62//164 63//165 55//157 54//156
f 63//165 64//166 56//158 55//157
f 64//166 63//165 62//164 61//163 60//162 59//161 58//160 57//159
f 25//119 32//130 40//142 33//131
f 32//130 31//129 39//141 40//142
f 31//128 30//127 38//139 39//140
f 30//126 29//125 37//137 38//138
f 29//125 28//124 36//136 37//137
f 28//124 27//123 35//135 36//136
f 27//122 26//121 34//133 35//134
f 26//120 25//119 33//131 34//132

# Shape "path01":
# Begin Group:
# Shape "bentForcepsL":
g bentForcepsL
# No. points 64:
v -0.02001 -0.19750 -4.78901
v -0.02001 -0.80252 -4.78901
v -90.02 -0.79750 -4.78899
v -90.02 -1.20251 -4.78899
v -90.02 -0.79750 5.01301
v -90.02 -1.20251 5.01301
v -0.02000 -0.19750 5.01299
v -0.02000 -0.80252 5.01299
v -90.02 -1.40001 -4.60859
v -90.02 -1.40001 4.83261
v -90.02 -0.60001 -4.60859
v -90.02 -0.60001 4.83261
v -0.02001 -0.00001 -4.60861
v -0.02000 -0.00001 4.83259
v -0.02001 -1.00001 -4.60861
v -0.02000 -1.00001 4.83259
v -91.643 -0.60001 -0.61555
v -91.643 -0.79750 -1.00369
v -91.643 -1.20251 -1.00369
v -91.643 -1.40001 -0.61555
v -91.643 -1.40001 0.83957
v -91.643 -1.20251 1.22771
v -91.643 -0.79750 1.22771
v -91.643 -0.60001 0.83957
v -109.73 -0.60001 -0.61555
v -109.73 -0.79750 -1.00369
v -109.73 -1.20251 -1.00369
v -109.73 -1.40001 -0.61555
v -109.73 -1.40001 0.83957
v -109.73 -1.20251 1.22771
v -109.73 -0.79750 1.22771
v -109.73 -0.60001 0.83957
v -112.5 -0.00009 0.78094
v -112.78 -0.19758 0.50649
v -112.78 -1.20261 0.50649
v -112.5 -1.40011 0.78094
v -111.47 -1.40011 1.80991
v -111.2 -1.20261 2.08431
v -111.2 -0.19758 2.08431
v -111.47 -0.00009 1.80991
v -123.32 -0.00009 12.087
v -123.47 -0.19758 11.942
v -123.47 -0.50260 11.942
v -123.32 -0.70009 12.087
v -122.78 -0.70009 12.629
v -122.63 -0.50260 12.774
v -122.63 -0.19758 12.774
v -122.78 -0.00009 12.629
v -123.38 -0.09984 12.298
v -123.48 -0.24105 12.194
v -123.48 -0.45913 12.194
v -123.38 -0.60034 12.298
v -122.99 -0.60034 12.686
v -122.89 -0.45913 12.789
v -122.89 -0.24105 12.789
v -122.99 -0.09984 12.686
v -123.35 -0.21621 12.449
v -123.4 -0.29175 12.393
v -123.4 -0.40843 12.393
v -123.35 -0.48397 12.449
v -123.14 -0.48397 12.656
v -123.08 -0.40843 12.712
v -123.08 -0.29175 12.712
v -123.14 -0.21621 12.656

# No. normals 166:
vn 0 0 -1
vn 0 0 1
vn 1 0 0
vn 0.00444 -0.99999 0
vn -0.00667 0.999978 0
vn -0.00450 0.67443 -0.73832
vn 0.00300 -0.67444 -0.73833
vn 0.00300 -0.67442 0.73834
vn -0.00450 0.67443 0.73832
vn 0 1 0
vn -0.86476 0.33869 -0.37078
vn -0.91908 0 -0.39407
vn -0.86477 -0.33868 -0.37078
vn 0 -1 0
vn -0.86477 -0.33868 0.37078
vn -0.91908 0 0.39407
vn -0.86476 0.33869 0.37078
vn 0 1 0
vn 0 0.89126 -0.45349
vn 0 0 -1
vn 0 -0.89125 -0.45350
vn 0 -1 0
vn 0 -0.89125 0.45350
vn 0 0 1
vn 0 0.89126 0.45349
vn 0 1 0
vn -0.32503 0.89309 -0.31105
vn -0.73052 0 -0.68289
vn -0.35624 -0.89195 -0.27842
vn -0.03159 -0.999001 0.03162
vn 0.28315 -0.88857 0.36094
vn 0.68306 0 0.73036
vn 0.31555 0.88973 0.32987
vn -0.32737 0.88682 0.32616
vn -0.81118 0.58306 0.04498
vn -0.999213 0 -0.03966
vn -0.81118 -0.58306 0.04498
vn -0.32737 -0.88682 0.32616
vn -0.04669 -0.56789 0.82178
vn 0.05760 0 0.99834
vn -0.04669 0.56789 0.82178
vn -0.56746 0.59384 0.57039
vn -0.85940 0.30802 0.40811
vn -0.92783 0 0.37300
vn -0.85940 -0.30802 0.40811
vn -0.56746 -0.59384 0.57039
vn -0.41953 -0.32197 0.84872
vn -0.37560 0 0.92678
vn -0.41953 0.32197 0.84872
vn -0.68229 0 0.73108
vn 0.21116 0.95432 -0.21137
vn 0.42378 0.87961 0.21609
vn 0.50348 0 0.86401
vn 0.23563 -0.88378 0.40425
vn 0.00004 -1 -0.00004
vn -0.21147 -0.88277 -0.41952
vn -0.44373 0 -0.89616
vn -0.08174 0.84665 -0.52584
vn -0.00241 0.36171 -0.93229
vn 1 0 0
vn 0.00161 -0.36171 -0.93229
vn 1 0 0
vn -0.00241 0.36171 -0.93229
vn -0.90540 0.17191 -0.38820
vn 0.00161 -0.36171 -0.93229
vn -0.90540 -0.17190 -0.38820
vn -0.00241 0.36171 0.93229
vn -0.90540 0.17191 0.38820
vn 0.00161 -0.36170 0.93229
vn -0.90540 -0.17190 0.38820
vn -0.00241 0.36171 0.93229
vn 1 0 0
vn 0.00161 -0.36170 0.93229
vn 1 0 0
vn 0.00222 -0.999998 0
vn -0.86477 -0.33868 -0.37078
vn 0.00300 -0.67444 -0.73833
vn 0.00222 -0.999998 0
vn -0.86477 -0.33868 0.37078
vn 0.00300 -0.67442 0.73834
vn -0.00333 0.999994 0
vn -0.86476 0.33869 -0.37078
vn -0.00450 0.67443 -0.73832
vn -0.00333 0.999994 0
vn -0.86476 0.33869 0.37078
vn -0.00450 0.67443 0.73832
vn 1 0 0
vn -0.00450 0.67443 -0.73832
vn -0.00667 0.999978 0
vn 1 0 0
vn -0.00450 0.67443 0.73832
vn -0.00667 0.999978 0
vn 1 0 0
vn 0.00300 -0.67444 -0.73833
vn 0.00444 -0.99999 0
vn 1 0 0
vn 0.00300 -0.67442 0.73834
vn 0.00444 -0.99999 0
vn 0 0.98792 -0.15495
vn -0.86476 0.33869 -0.37078
vn -0.90540 0.17191 -0.38820
vn 0 0 -1
vn 0 0.89126 -0.45349
vn -0.90540 -0.17190 -0.38820
vn 0 -0.89125 -0.45350
vn 0 0 -1
vn -0.86477 -0.33868 -0.37078
vn 0 -0.98792 -0.15496
vn 0 -0.98792 0.15496
vn -0.86477 -0.33868 0.37078
vn -0.90540 -0.17190 0.38820
vn 0 0 1
vn 0 -0.89125 0.45350
vn -0.90540 0.17191 0.38820
vn 0 0.89126 0.45349
vn 0 0 1
vn 0 0.98792 0.15495
vn -0.86476 0.33869 0.37078
vn 0.03334 0.95121 -0.30675
vn -0.04094 0.87047 -0.49052
vn -0.22786 0 -0.97369
vn -0.22786 0 -0.97369
vn -0.10635 -0.89215 -0.43904
vn -0.05450 -0.97282 -0.22505
vn 0.06076 -0.97334 0.22115
vn 0.11868 -0.89402 0.43202
vn 0.26076 0 0.96540
vn 0.26076 0 0.96540
vn 0.21843 0.91278 0.34513
vn 0.16680 0.97862 0.12037
vn -0.05087 0.96077 -0.27264
vn -0.20617 0.88179 -0.42419
vn -0.59673 0 -0.80244
vn -0.59673 0 -0.80244
vn -0.28532 -0.89194 -0.35077
vn -0.15450 -0.97294 -0.17180
vn 0.12540 -0.97068 0.20508
vn 0.25952 -0.88663 0.38280
vn 0.59702 0 0.80223
vn 0.59702 0 0.80223
vn 0.37081 0.88742 0.27383
vn 0.24639 0.96528 0.08673
vn -0.39900 0.91681 0.01638
vn -0.84994 0.43777 -0.29319
vn -0.85495 -0.43528 -0.28211
vn -0.41328 -0.90998 0.03367
vn -0.03327 -0.90767 0.41836
vn 0.28748 -0.42851 0.85658
vn 0.29847 0.43095 0.85159
vn -0.01600 0.91457 0.40412
vn -0.68495 0.63324 0.36035
vn -0.94953 0.23518 0.20757
vn -0.94953 -0.23518 0.20757
vn -0.68495 -0.63324 0.36035
vn -0.36296 -0.63216 0.68457
vn -0.20713 -0.23503 0.94966
vn -0.20713 0.23503 0.94966
vn -0.36296 0.63216 0.68457
vn -0.73724 0.31524 0.59757
vn -0.84803 0.10577 0.51929
vn -0.84803 -0.10577 0.51929
vn -0.73724 -0.31524 0.59757
vn -0.58122 -0.31887 0.74867
vn -0.50469 -0.10999 0.85626
vn -0.50469 0.10999 0.85626
vn -0.58122 0.31887 0.74867

# No. texture coordinates 0:

# No. faces 58:

usemtl ___default___

f 68//231 67//229 65//225 66//227
f 71//237 69//233 70//235 72//239
f 71//238 72//240 80//262 79//259 66//228 65//226 77//253 78//256
f 74//244 73//241 79//261 80//264
f 77//255 75//247 76//250 78//258
f 65//225 67//229 75//249 77//254
f 73//243 68//231 66//227 79//260
f 72//239 70//235 74//246 80//263
f 76//252 69//233 71//237 78//257
f 88//283 76//250 75//247 81//265
f 81//266 75//248 67//230 82//267
f 82//267 67//230 68//232 83//270
f 83//270 68//232 73//242 84//273
f 84//274 73//241 74//244 85//275
f 85//276 74//245 70//236 86//277
f 86//277 70//236 69//234 87//280
f 87//280 69//234 76//251 88//284
f 96//296 88//283 81//265 89//285
f 89//285 81//265 82//269 90//286
f 90//287 82//268 83//272 91//288
f 91//289 83//271 84//274 92//290
f 92//290 84//274 85//275 93//291
f 93//291 85//275 86//279 94//292
f 94//293 86//278 87//282 95//294
f 95//295 87//281 88//283 96//296
f 112//316 104//308 97//297 105//309
f 105//309 97//297 98//298 106//310
f 106//310 98//299 99//300 107//311
f 107//311 99//301 100//302 108//312
f 108//312 100//302 101//303 109//313
f 109//313 101//303 102//304 110//314
f 110//314 102//305 103//306 111//315
f 111//315 103//307 104//308 112//316
f 120//324 112//316 105//309 113//317
f 113//317 105//309 106//310 114//318
f 114//318 106//310 107//311 115//319
f 115//319 107//311 108//312 116//320
f 116//320 108//312 109//313 117//321
f 117//321 109//313 110//314 118//322
f 118//322 110//314 111//315 119//323
f 119//323 111//315 112//316 120//324
f 128//332 120//324 113//317 121//325
f 121//325 113//317 114//318 122//326
f 122//326 114//318 115//319 123//327
f 123//327 115//319 116//320 124//328
f 124//328 116//320 117//321 125//329
f 125//329 117//321 118//322 126//330
f 126//330 118//322 119//323 127//331
f 127//331 119//323 120//324 128//332
f 124//328 125//329 126//330 127//331 128//332 121//325 122//326 123//327
f 89//285 97//297 104//308 96//296
f 96//296 104//308 103//307 95//295
f 95//294 103//306 102//305 94//293
f 94//292 102//304 101//303 93//291
f 93//291 101//303 100//302 92//290
f 92//290 100//302 99//301 91//289
f 91//288 99//300 98//299 90//287
f 90//286 98//298 97//297 89//285

# End Group:

# End of Object "bentForceps"
