# Created with Anim8or 1.00 beta 3
# Object "straightForceps":

mtllib straightForceps.mtl

# Shape "straightForcepsR":
g straightForcepsR
# No. points 64:
v -0.01900 0.19749 4.901
v -0.01900 0.80251 4.901
v -90.019 0.79749 4.901
v -90.019 1.20251 4.901
v -90.019 0.79749 -4.901
v -90.019 1.20251 -4.901
v -0.01900 0.19749 -4.901
v -0.01900 0.80251 -4.901
v -90.019 1.4 4.7206
v -90.019 1.4 -4.7206
v -90.019 0.60000 4.7206
v -90.019 0.60000 -4.7206
v -0.01900 0 4.7206
v -0.01900 0 -4.7206
v -0.01900 1 4.7206
v -0.01900 1 -4.7206
v -91.642 0.60000 0.72756
v -91.642 0.79749 1.1157
v -91.642 1.20251 1.1157
v -91.642 1.4 0.72756
v -91.642 1.4 -0.72756
v -91.642 1.20251 -1.1157
v -91.642 0.79749 -1.1157
v -91.642 0.60000 -0.72756
v -109.726 0.59999 0.72755
v -109.726 0.79748 1.11569
v -109.726 1.2025 1.11569
v -109.726 1.39999 0.72755
v -109.726 1.39999 -0.72757
v -109.726 1.2025 -1.11571
v -109.726 0.79748 -1.11571
v -109.726 0.59999 -0.72757
v -111.962 -0.00001 0.72755
v -111.962 0.19748 1.11569
v -111.962 1.2025 1.11569
v -111.962 1.39999 0.72755
v -111.962 1.39999 -0.72757
v -111.962 1.2025 -1.11571
v -111.962 0.19748 -1.11571
v -111.962 -0.00001 -0.72757
v -127.607 -0.00001 0.38363
v -127.607 0.19748 0.58826
v -127.607 0.50250 0.58826
v -127.607 0.69999 0.38363
v -127.607 0.69999 -0.38365
v -127.607 0.50250 -0.58828
v -127.607 0.19748 -0.58828
v -127.607 -0.00001 -0.38365
v -127.796 0.09974 0.27429
v -127.796 0.24095 0.42060
v -127.796 0.45903 0.42060
v -127.796 0.60024 0.27429
v -127.796 0.60024 -0.27431
v -127.796 0.45903 -0.42062
v -127.796 0.24095 -0.42062
v -127.796 0.09974 -0.27431
v -127.882 0.21611 0.14674
v -127.882 0.29165 0.22502
v -127.882 0.40833 0.22502
v -127.882 0.48387 0.14674
v -127.882 0.48387 -0.14676
v -127.882 0.40833 -0.22504
v -127.882 0.29165 -0.22504
v -127.882 0.21611 -0.14676

# No. normals 166:
vn 0 0 1
vn 0 0 -1
vn 1 0 0
vn 0.00444 0.99999 0
vn -0.00667 -0.999978 0
vn -0.00450 -0.67443 0.73832
vn 0.00300 0.67444 0.73833
vn 0.00300 0.67444 -0.73833
vn -0.00450 -0.67443 -0.73832
vn 0 -1 0
vn -0.86476 -0.33869 0.37078
vn -0.91908 0 0.39407
vn -0.86476 0.33869 0.37078
vn 0 1 0
vn -0.86476 0.33869 -0.37078
vn -0.91908 0 -0.39407
vn -0.86476 -0.33869 -0.37078
vn 0 -1 0
vn 0 -0.89126 0.45349
vn 0 0 1
vn 0 0.89126 0.45349
vn 0 1 0
vn 0 0.89126 -0.45349
vn 0 0 -1
vn 0 -0.89126 -0.45349
vn 0.25917 -0.96583 0
vn 0.23260 -0.86682 0.44105
vn 0 0 1
vn 0 0.89126 0.45349
vn 0 1 0
vn 0 0.89126 -0.45349
vn 0 0 -1
vn 0.23260 -0.86682 -0.44105
vn 0 -1 0
vn -0.00997 -0.89122 0.45346
vn -0.03369 0 0.999432
vn -0.04978 0.89016 0.45292
vn -0.04470 0.999001 0
vn -0.04978 0.89016 -0.45292
vn -0.03369 0 -0.999432
vn -0.00997 -0.89122 -0.45346
vn -0.46675 -0.88439 0
vn -0.61576 -0.56695 0.54717
vn -0.66361 0 0.74808
vn -0.61577 0.56695 0.54717
vn -0.46675 0.88439 0
vn -0.61576 0.56695 -0.54717
vn -0.66361 0 -0.74808
vn -0.61576 -0.56695 -0.54717
vn -0.80422 -0.59433 0
vn -0.89475 -0.32132 0.31012
vn -0.91541 0 0.40252
vn -0.89475 0.32132 0.31012
vn -0.80422 0.59433 0
vn -0.89475 0.32132 -0.31012
vn -0.91541 0 -0.40252
vn -0.89475 -0.32132 -0.31012
vn -1 0 0
vn -0.00241 -0.36171 0.93229
vn 1 0 0
vn 0.00161 0.36171 0.93229
vn 1 0 0
vn -0.00241 -0.36171 0.93229
vn -0.90540 -0.17191 0.38820
vn 0.00161 0.36171 0.93229
vn -0.90540 0.17191 0.38820
vn -0.00241 -0.36171 -0.93229
vn -0.90540 -0.17191 -0.38820
vn 0.00161 0.36171 -0.93229
vn -0.90540 0.17191 -0.38820
vn -0.00241 -0.36171 -0.93229
vn 1 0 0
vn 0.00161 0.36171 -0.93229
vn 1 0 0
vn 0.00222 0.999998 0
vn -0.86476 0.33869 0.37078
vn 0.00300 0.67444 0.73833
vn 0.00222 0.999998 0
vn -0.86476 0.33869 -0.37078
vn 0.00300 0.67444 -0.73833
vn -0.00333 -0.999994 0
vn -0.86476 -0.33869 0.37078
vn -0.00450 -0.67443 0.73832
vn -0.00333 -0.999994 0
vn -0.86476 -0.33869 -0.37078
vn -0.00450 -0.67443 -0.73832
vn 1 0 0
vn -0.00450 -0.67443 0.73832
vn -0.00667 -0.999978 0
vn 1 0 0
vn -0.00450 -0.67443 -0.73832
vn -0.00667 -0.999978 0
vn 1 0 0
vn 0.00300 0.67444 0.73833
vn 0.00444 0.99999 0
vn 1 0 0
vn 0.00300 0.67444 -0.73833
vn 0.00444 0.99999 0
vn 0 -0.98792 0.15495
vn -0.86476 -0.33869 0.37078
vn -0.90540 -0.17191 0.38820
vn 0 0 1
vn 0 -0.89126 0.45349
vn -0.90540 0.17191 0.38820
vn 0 0.89126 0.45349
vn 0 0 1
vn -0.86476 0.33869 0.37078
vn 0 0.98792 0.15495
vn 0 0.98792 -0.15495
vn -0.86476 0.33869 -0.37078
vn -0.90540 0.17191 -0.38820
vn 0 0 -1
vn 0 0.89126 -0.45349
vn -0.90540 -0.17191 -0.38820
vn 0 -0.89126 -0.45349
vn 0 0 -1
vn 0 -0.98792 -0.15495
vn -0.86476 -0.33869 -0.37078
vn 0.12736 -0.96442 0.23167
vn 0.11711 -0.88513 0.45036
vn 0 0 1
vn 0 0 1
vn 0 0.89126 0.45349
vn 0 0.97244 0.23317
vn 0 0.97244 -0.23317
vn 0 0.89126 -0.45349
vn 0 0 -1
vn 0 0 -1
vn 0.11711 -0.88513 -0.45036
vn 0.12736 -0.96442 -0.23167
vn 0.12482 -0.96474 0.23174
vn 0.11215 -0.88564 0.45062
vn -0.01685 0 0.999858
vn -0.01685 0 0.999858
vn -0.02490 0.89099 0.45334
vn -0.02430 0.97215 0.23309
vn -0.02430 0.97215 -0.23309
vn -0.02490 0.89099 -0.45334
vn -0.01685 0 -0.999858
vn -0.01685 0 -0.999858
vn 0.11215 -0.88564 -0.45062
vn 0.12482 -0.96474 -0.23174
vn -0.29881 -0.91423 0.27368
vn -0.39135 -0.43133 0.81290
vn -0.40136 0.42912 0.80917
vn -0.31981 0.90768 0.27174
vn -0.31981 0.90768 -0.27174
vn -0.40136 0.42912 -0.80917
vn -0.39135 -0.43133 -0.81290
vn -0.29881 -0.91423 -0.27368
vn -0.74142 -0.63093 0.22851
vn -0.81513 -0.23436 0.52975
vn -0.81513 0.23436 0.52975
vn -0.74142 0.63093 0.22851
vn -0.74142 0.63093 -0.22851
vn -0.81513 0.23436 -0.52975
vn -0.81513 -0.23436 -0.52975
vn -0.74142 -0.63093 -0.22851
vn -0.94143 -0.31939 0.10817
vn -0.96342 -0.11016 0.24431
vn -0.96342 0.11016 0.24431
vn -0.94143 0.31939 0.10817
vn -0.94143 0.31939 -0.10817
vn -0.96342 0.11016 -0.24431
vn -0.96342 -0.11016 -0.24431
vn -0.94143 -0.31939 -0.10817

# No. texture coordinates 0:

# No. faces 58:

usemtl ___default___

f 4//65 3//63 1//59 2//61
f 7//71 5//67 6//69 8//73
f 7//72 8//74 16//96 15//93 2//62 1//60 13//87 14//90
f 10//78 9//75 15//95 16//98
f 13//89 11//81 12//84 14//92
f 1//59 3//63 11//83 13//88
f 9//77 4//65 2//61 15//94
f 8//73 6//69 10//80 16//97
f 12//86 5//67 7//71 14//91
f 24//117 12//84 11//81 17//99
f 17//100 11//82 3//64 18//101
f 18//101 3//64 4//66 19//104
f 19//104 4//66 9//76 20//107
f 20//108 9//75 10//78 21//109
f 21//110 10//79 6//70 22//111
f 22//111 6//70 5//68 23//114
f 23//114 5//68 12//85 24//118
f 32//130 24//117 17//99 25//119
f 25//119 17//99 18//103 26//120
f 26//121 18//102 19//106 27//122
f 27//123 19//105 20//108 28//124
f 28//124 20//108 21//109 29//125
f 29//125 21//109 22//113 30//126
f 30//127 22//112 23//116 31//128
f 31//129 23//115 24//117 32//130
f 40//142 32//130 25//119 33//131
f 33//131 25//119 26//120 34//132
f 34//133 26//121 27//122 35//134
f 35//135 27//123 28//124 36//136
f 36//136 28//124 29//125 37//137
f 37//137 29//125 30//126 38//138
f 38//139 30//127 31//128 39//140
f 39//141 31//129 32//130 40//142
f 48//150 40//142 33//131 41//143
f 41//143 33//131 34//132 42//144
f 42//144 34//133 35//134 43//145
f 43//145 35//135 36//136 44//146
f 44//146 36//136 37//137 45//147
f 45//147 37//137 38//138 46//148
f 46//148 38//139 39//140 47//149
f 47//149 39//141 40//142 48//150
f 56//158 48//150 41//143 49//151
f 49//151 41//143 42//144 50//152
f 50//152 42//144 43//145 51//153
f 51//153 43//145 44//146 52//154
f 52//154 44//146 45//147 53//155
f 53//155 45//147 46//148 54//156
f 54//156 46//148 47//149 55//157
f 55//157 47//149 48//150 56//158
f 64//166 56//158 49//151 57//159
f 57//159 49//151 50//152 58//160
f 58//160 50//152 51//153 59//161
f 59//161 51//153 52//154 60//162
f 60//162 52//154 53//155 61//163
f 61//163 53//155 54//156 62//164
f 62//164 54//156 55//157 63//165
f 63//165 55//157 56//158 64//166
f 60//162 61//163 62//164 63//165 64//166 57//159 58//160 59//161

# Shape "straightForcepsL":
g straightForcepsL
# No. points 64:
v -0.01900 -0.19749 4.901
v -0.01900 -0.80251 4.901
v -90.019 -0.79749 4.901
v -90.019 -1.20251 4.901
v -90.019 -0.79749 -4.901
v -90.019 -1.20251 -4.901
v -0.01900 -0.19749 -4.901
v -0.01900 -0.80251 -4.901
v -90.019 -1.4 4.7206
v -90.019 -1.4 -4.7206
v -90.019 -0.60000 4.7206
v -90.019 -0.60000 -4.7206
v -0.01900 0 4.7206
v -0.01900 0 -4.7206
v -0.01900 -1 4.7206
v -0.01900 -1 -4.7206
v -91.642 -0.60000 0.72756
v -91.642 -0.79749 1.1157
v -91.642 -1.20251 1.1157
v -91.642 -1.4 0.72756
v -91.642 -1.4 -0.72756
v -91.642 -1.20251 -1.1157
v -91.642 -0.79749 -1.1157
v -91.642 -0.60000 -0.72756
v -109.726 -0.59999 0.72757
v -109.726 -0.79748 1.11571
v -109.726 -1.2025 1.11571
v -109.726 -1.39999 0.72757
v -109.726 -1.39999 -0.72755
v -109.726 -1.2025 -1.11569
v -109.726 -0.79748 -1.11569
v -109.726 -0.59999 -0.72755
v -111.962 0.00001 0.72757
v -111.962 -0.19748 1.11571
v -111.962 -1.2025 1.11571
v -111.962 -1.39999 0.72757
v -111.962 -1.39999 -0.72755
v -111.962 -1.2025 -1.11569
v -111.962 -0.19748 -1.11569
v -111.962 0.00001 -0.72755
v -127.607 0.00001 0.38365
v -127.607 -0.19748 0.58828
v -127.607 -0.50250 0.58828
v -127.607 -0.69999 0.38365
v -127.607 -0.69999 -0.38363
v -127.607 -0.50250 -0.58826
v -127.607 -0.19748 -0.58826
v -127.607 0.00001 -0.38363
v -127.796 -0.09974 0.27431
v -127.796 -0.24095 0.42062
v -127.796 -0.45903 0.42062
v -127.796 -0.60024 0.27431
v -127.796 -0.60024 -0.27429
v -127.796 -0.45903 -0.42060
v -127.796 -0.24095 -0.42060
v -127.796 -0.09974 -0.27429
v -127.882 -0.21611 0.14676
v -127.882 -0.29165 0.22504
v -127.882 -0.40833 0.22504
v -127.882 -0.48387 0.14676
v -127.882 -0.48387 -0.14674
v -127.882 -0.40833 -0.22502
v -127.882 -0.29165 -0.22502
v -127.882 -0.21611 -0.14674

# No. normals 166:
vn 0 0 1
vn 0 0 -1
vn 1 0 0
vn 0.00444 -0.99999 0
vn -0.00667 0.999978 0
vn -0.00450 0.67443 0.73832
vn 0.00300 -0.67444 0.73833
vn 0.00300 -0.67444 -0.73833
vn -0.00450 0.67443 -0.73832
vn 0 1 0
vn -0.86476 0.33869 0.37078
vn -0.91908 0 0.39407
vn -0.87603 -0.32526 0.35607
vn 0 -1 0
vn -0.86476 -0.33869 -0.37078
vn -0.91908 0 -0.39407
vn -0.87603 0.32526 -0.35607
vn 0 1 0
vn 0 0.89126 0.45349
vn 0 0 1
vn 0 -0.89126 0.45349
vn 0 -1 0
vn 0 -0.89126 -0.45349
vn 0 0 -1
vn 0 0.89126 -0.45349
vn 0.25917 0.96583 0
vn 0.23260 0.86682 0.44105
vn 0 0 1
vn 0 -0.89126 0.45349
vn 0 -1 0
vn 0 -0.89126 -0.45349
vn 0 0 -1
vn 0.23260 0.86682 -0.44105
vn 0 1 0
vn -0.02340 0.71935 0.69425
vn -0.03369 0 0.999432
vn -0.04978 -0.89016 0.45292
vn -0.04470 -0.999001 0
vn -0.05552 -0.71844 -0.69337
vn -0.03369 0 -0.999432
vn -0.01526 0.71946 -0.69436
vn -0.46675 0.88439 0
vn -0.61578 0.56694 0.54717
vn -0.66361 0 0.74808
vn -0.61577 -0.56694 0.54718
vn -0.46675 -0.88439 0
vn -0.61578 -0.56694 -0.54717
vn -0.66361 0 -0.74808
vn -0.61577 0.56694 -0.54718
vn -0.80422 0.59433 0
vn -0.89474 0.32133 0.31013
vn -0.91541 0 0.40252
vn -0.89475 -0.32132 0.31012
vn -0.80422 -0.59433 0
vn -0.89474 -0.32133 -0.31013
vn -0.91541 0 -0.40252
vn -0.89475 0.32132 -0.31012
vn -1 0 0
vn -0.00241 0.36171 0.93229
vn 1 0 0
vn 0.00161 -0.36171 0.93229
vn 1 0 0
vn -0.00241 0.36171 0.93229
vn -0.90540 0.17191 0.38820
vn 0.00161 -0.36171 0.93229
vn -0.91005 -0.16489 0.38029
vn -0.00241 0.36171 -0.93229
vn -0.91005 0.16489 -0.38029
vn 0.00161 -0.36171 -0.93229
vn -0.90540 -0.17191 -0.38820
vn -0.00241 0.36171 -0.93229
vn 1 0 0
vn 0.00161 -0.36171 -0.93229
vn 1 0 0
vn 0.00222 -0.999998 0
vn -0.87603 -0.32526 0.35607
vn 0.00300 -0.67444 0.73833
vn 0.00222 -0.999998 0
vn -0.86476 -0.33869 -0.37078
vn 0.00300 -0.67444 -0.73833
vn -0.00333 0.999994 0
vn -0.86476 0.33869 0.37078
vn -0.00450 0.67443 0.73832
vn -0.00333 0.999994 0
vn -0.87603 0.32526 -0.35607
vn -0.00450 0.67443 -0.73832
vn 1 0 0
vn -0.00450 0.67443 0.73832
vn -0.00667 0.999978 0
vn 1 0 0
vn -0.00450 0.67443 -0.73832
vn -0.00667 0.999978 0
vn 1 0 0
vn 0.00300 -0.67444 0.73833
vn 0.00444 -0.99999 0
vn 1 0 0
vn 0.00300 -0.67444 -0.73833
vn 0.00444 -0.99999 0
vn 0 0.98792 0.15495
vn -0.86476 0.33869 0.37078
vn -0.90540 0.17191 0.38820
vn 0 0 1
vn 0 0.89126 0.45349
vn -0.91005 -0.16489 0.38029
vn 0 -0.89126 0.45349
vn 0 0 1
vn -0.87603 -0.32526 0.35607
vn 0 -0.98792 0.15495
vn 0 -0.98792 -0.15495
vn -0.86476 -0.33869 -0.37078
vn -0.90540 -0.17191 -0.38820
vn 0 0 -1
vn 0 -0.89126 -0.45349
vn -0.91005 0.16489 -0.38029
vn 0 0.89126 -0.45349
vn 0 0 -1
vn 0 0.98792 -0.15495
vn -0.87603 0.32526 -0.35607
vn 0.12736 0.96442 0.23167
vn 0.11711 0.88513 0.45036
vn 0 0 1
vn 0 0 1
vn 0 -0.89126 0.45349
vn 0 -0.97244 0.23317
vn 0 -0.97244 -0.23317
vn 0 -0.89126 -0.45349
vn 0 0 -1
vn 0 0 -1
vn 0.11711 0.88513 -0.45036
vn 0.12736 0.96442 -0.23167
vn 0.12462 0.94510 0.30208
vn 0.10663 0.80853 0.57871
vn -0.01685 0 0.999858
vn -0.01685 0 0.999858
vn -0.02490 -0.89099 0.45334
vn -0.02430 -0.97215 0.23309
vn -0.02646 -0.95270 -0.30277
vn -0.02808 -0.81411 -0.58003
vn -0.01685 0 -0.999858
vn -0.01685 0 -0.999858
vn 0.11073 0.80816 -0.57846
vn 0.12675 0.94484 -0.30201
vn -0.30891 0.88563 0.34675
vn -0.37993 0.36566 0.84968
vn -0.40136 -0.42912 0.80918
vn -0.31981 -0.90767 0.27175
vn -0.32830 -0.87957 -0.34434
vn -0.38782 -0.36423 -0.84672
vn -0.37793 0.36600 -0.85042
vn -0.30683 0.88625 -0.34701
vn -0.74142 0.63093 0.22852
vn -0.81513 0.23436 0.52976
vn -0.81513 -0.23436 0.52976
vn -0.74142 -0.63093 0.22852
vn -0.74142 -0.63093 -0.22852
vn -0.81513 -0.23436 -0.52976
vn -0.81513 0.23436 -0.52976
vn -0.74142 0.63093 -0.22852
vn -0.94143 0.31939 0.10818
vn -0.96342 0.11016 0.24432
vn -0.96342 -0.11016 0.24431
vn -0.94143 -0.31939 0.10817
vn -0.94143 -0.31939 -0.10818
vn -0.96342 -0.11016 -0.24432
vn -0.96342 0.11016 -0.24431
vn -0.94143 0.31939 -0.10817

# No. texture coordinates 0:

# No. faces 58:

usemtl ___default___

f 68//231 66//227 65//225 67//229
f 71//237 72//239 70//235 69//233
f 66//228 79//259 80//262 72//240 71//238 78//256 77//253 65//226
f 74//244 80//264 79//261 73//241
f 77//255 78//258 76//250 75//247
f 65//225 77//254 75//249 67//229
f 73//243 79//260 66//227 68//231
f 72//239 80//263 74//246 70//235
f 76//252 78//257 71//237 69//233
f 88//283 81//265 75//247 76//250
f 81//266 82//267 67//230 75//248
f 82//267 83//270 68//232 67//230
f 83//270 84//273 73//242 68//232
f 84//274 85//275 74//244 73//241
f 85//276 86//277 70//236 74//245
f 86//277 87//280 69//234 70//236
f 87//280 88//284 76//251 69//234
f 96//296 89//285 81//265 88//283
f 89//285 90//286 82//269 81//265
f 90//287 91//288 83//272 82//268
f 91//289 92//290 84//274 83//271
f 92//290 93//291 85//275 84//274
f 93//291 94//292 86//279 85//275
f 94//293 95//294 87//282 86//278
f 95//295 96//296 88//283 87//281
f 104//308 97//297 89//285 96//296
f 97//297 98//298 90//286 89//285
f 98//299 99//300 91//288 90//287
f 99//301 100//302 92//290 91//289
f 100//302 101//303 93//291 92//290
f 101//303 102//304 94//292 93//291
f 102//305 103//306 95//294 94//293
f 103//307 104//308 96//296 95//295
f 112//316 105//309 97//297 104//308
f 105//309 106//310 98//298 97//297
f 106//310 107//311 99//300 98//299
f 107//311 108//312 100//302 99//301
f 108//312 109//313 101//303 100//302
f 109//313 110//314 102//304 101//303
f 110//314 111//315 103//306 102//305
f 111//315 112//316 104//308 103//307
f 120//324 113//317 105//309 112//316
f 113//317 114//318 106//310 105//309
f 114//318 115//319 107//311 106//310
f 115//319 116//320 108//312 107//311
f 116//320 117//321 109//313 108//312
f 117//321 118//322 110//314 109//313
f 118//322 119//323 111//315 110//314
f 119//323 120//324 112//316 111//315
f 128//332 121//325 113//317 120//324
f 121//325 122//326 114//318 113//317
f 122//326 123//327 115//319 114//318
f 123//327 124//328 116//320 115//319
f 124//328 125//329 117//321 116//320
f 125//329 126//330 118//322 117//321
f 126//330 127//331 119//323 118//322
f 127//331 128//332 120//324 119//323
f 128//332 127//331 126//330 125//329 124//328 123//327 122//326 121//325

# End of Object "straightForceps"
